<svg width="30" height="30" viewBox="0 0 30 30" fill="none" xmlns="http://www.w3.org/2000/svg">
<path fill-rule="evenodd" clip-rule="evenodd" d="M26.5049 2.50503C26.7782 2.23166 27.2215 2.23166 27.4948 2.50503C27.7682 2.7784 27.7682 3.22161 27.4948 3.49498L15.9899 15L27.4949 26.505C27.7683 26.7784 27.7683 27.2216 27.4949 27.495C27.2216 27.7683 26.7783 27.7683 26.505 27.495L14.9999 15.9899L3.49477 27.495C3.22141 27.7683 2.77819 27.7683 2.50482 27.495C2.23146 27.2216 2.23146 26.7784 2.50482 26.505L14.0099 15L2.50492 3.49498C2.23156 3.22161 2.23156 2.7784 2.50492 2.50503C2.77829 2.23166 3.22151 2.23166 3.49487 2.50503L14.9999 14.01L26.5049 2.50503Z" fill="currentColor"/>
</svg>
