<svg width="1em" height="1em" viewBox="0 0 60 60" fill="none" xmlns="http://www.w3.org/2000/svg">
<g opacity="0.6">
<path d="M46.3047 27.1289C44.9284 18.5339 37.4496 11.9639 28.4133 11.9639C18.4083 11.9639 10.3047 20.0189 10.3047 29.9639C10.3047 39.9089 18.4083 47.9639 28.4133 47.9639C31.7091 47.9639 34.8057 47.0909 37.4677 45.5519C40.3107 43.9139 42.6648 41.5379 44.2584 38.6759" stroke="black" stroke-width="3" stroke-miterlimit="10" stroke-linecap="round" stroke-linejoin="round"/>
<path d="M33.3752 29.2256H23.2344V36.0839H33.3752V29.2256Z" fill="black" stroke="black" stroke-width="3" stroke-miterlimit="10" stroke-linecap="round" stroke-linejoin="round"/>
<path d="M31.3423 28.4896V26.6897C31.3423 25.1181 29.9833 23.8442 28.3001 23.8442C26.6168 23.8442 25.2578 25.1181 25.2578 26.6897L25.2578 28.4896" stroke="black" stroke-width="3" stroke-miterlimit="10" stroke-linejoin="round"/>
<path d="M48.6861 22.7658L46.1639 27.7817L41.1484 25.2598" stroke="black" stroke-width="3" stroke-miterlimit="10" stroke-linecap="round" stroke-linejoin="round"/>
</g>
</svg>
