<svg width="355" height="41" viewBox="0 0 355 41" fill="none" xmlns="http://www.w3.org/2000/svg">
<path d="M35.5184 13.976V13.8664C35.5184 5.44656 29.5832 0.21582 20.0329 0.21582H0V40.7793H10.1282V28.2931H17.1096L25.4703 40.7793H37.3787L27.5626 26.4286C32.7048 24.176 35.5184 19.7889 35.5184 13.976ZM25.2805 14.4232C25.2805 17.3971 23.108 19.9408 19.4761 19.9408H10.1282V8.73686H19.3073C22.0324 8.73686 25.2805 10.3398 25.2805 14.3093V14.4232Z" fill="currentColor"/>
<path d="M52.7923 0.21582H42.6641V40.7793H52.7923V0.21582Z" fill="currentColor"/>
<path d="M78.856 0.21582H60.2109V40.7793H78.856C91.3169 40.7793 97.6402 32.2499 97.6402 20.4976V20.3879C97.6445 8.69889 91.3212 0.21582 78.856 0.21582ZM87.1239 20.6073C87.1239 27.1161 84.2723 31.9461 77.7002 31.9461H70.3392V9.0448H77.7002C84.2723 9.0448 87.1239 13.9212 87.1239 20.4976V20.6073Z" fill="currentColor"/>
<path d="M113.324 0.21582H103.195V40.7793H113.324V0.21582Z" fill="currentColor"/>
<path d="M150.631 2.15109C148.661 1.0712 146.265 0.53125 143.448 0.53125H128.211V40.7784H132.159V25.5671H143.502C146.295 25.5671 148.67 25.0187 150.636 23.9261C152.601 22.8336 154.078 21.3403 155.069 19.4547C156.056 17.5691 156.554 15.4262 156.554 13.0302C156.554 10.6342 156.06 8.49125 155.069 6.60565C154.082 4.71584 152.601 3.23099 150.631 2.15109ZM151.614 17.6957C150.927 19.0371 149.885 20.0917 148.488 20.8594C147.092 21.6271 145.38 22.0068 143.351 22.0068H132.164V4.06622H143.313C145.371 4.06622 147.096 4.44587 148.493 5.20517C149.889 5.96447 150.931 7.01483 151.618 8.36048C152.306 9.70191 152.652 11.2585 152.652 13.026C152.652 14.7934 152.302 16.3542 151.614 17.6957Z" fill="currentColor"/>
<path d="M171.587 0.53125L156.945 40.7784H161.092L165.348 28.811H182.69L186.942 40.7784H191.11L176.464 0.53125H171.587ZM166.601 25.2929L173.591 5.63965H174.46L181.441 25.2929H166.601Z" fill="currentColor"/>
<path d="M220.022 2.15109C218.052 1.0712 215.656 0.53125 212.838 0.53125H197.602V40.7784H201.55V25.5671H212.893C215.686 25.5671 218.06 25.0187 220.026 23.9261C221.992 22.8336 223.468 21.3403 224.46 19.4547C225.447 17.5691 225.945 15.4262 225.945 13.0302C225.945 10.6342 225.451 8.49125 224.46 6.60565C223.477 4.71584 221.996 3.23099 220.022 2.15109ZM221.005 17.6957C220.317 19.0371 219.275 20.0917 217.879 20.8594C216.483 21.6271 214.77 22.0068 212.741 22.0068H201.554V4.06622H212.703C214.762 4.06622 216.487 4.44587 217.883 5.20517C219.28 5.96447 220.322 7.01483 221.009 8.36048C221.697 9.70191 222.043 11.2585 222.043 13.026C222.043 14.7934 221.692 16.3542 221.005 17.6957Z" fill="currentColor"/>
<path d="M238.128 22.3822H258.962V18.8641H238.128V4.06622H260.219V0.53125H234.18V40.7784H260.574V37.2392H238.128V22.3822Z" fill="currentColor"/>
<path d="M299.658 40.7784L290.412 23.846C291.002 23.6477 291.563 23.4199 292.09 23.15C294.043 22.1544 295.511 20.754 296.503 18.9443C297.49 17.1346 297.988 15.0381 297.988 12.6547C297.988 10.2587 297.494 8.14956 296.503 6.32724C295.511 4.50492 294.035 3.08334 292.069 2.06251C290.104 1.04167 287.708 0.53125 284.877 0.53125H269.273V40.7784H273.222V24.6433H284.936C285.421 24.6433 285.885 24.6222 286.345 24.5926L295.077 40.7784H299.658ZM284.78 21.045H273.226V4.06622H284.742C286.813 4.06622 288.543 4.41634 289.931 5.11658C291.318 5.81682 292.356 6.80813 293.044 8.09473C293.731 9.3771 294.077 10.8999 294.077 12.6547C294.077 14.3969 293.74 15.8986 293.065 17.1557C292.39 18.4128 291.356 19.3746 289.969 20.0453C288.581 20.7118 286.851 21.045 284.78 21.045Z" fill="currentColor"/>
<path d="M355.002 28.3457H349.481V0.53418H344.478L324.875 28.6241V31.868H345.705V40.7855H349.481V31.8638H355.002V28.3457ZM329.503 28.0715L345.313 5.79866H345.705V28.3457H329.503V28.0715Z" fill="currentColor"/>
</svg>
