<svg width="60" height="60" viewBox="0 0 60 60" fill="none" xmlns="http://www.w3.org/2000/svg">
<path fill-rule="evenodd" clip-rule="evenodd" d="M35.5 20.5C35.2239 20.5 35 20.7239 35 21V29.5H36V21C36 20.7239 35.7761 20.5 35.5 20.5ZM35.5 39.5C35.2239 39.5 35 39.2761 35 39V30.5H36V39C36 39.2761 35.7761 39.5 35.5 39.5Z" fill="#70808F"/>
<path d="M19.1729 25.9033V27.7148H19.0703C18.209 27.7148 17.5003 27.9222 16.9443 28.3369C16.3929 28.7471 16.0534 29.319 15.9258 30.0527C16.4453 29.5423 17.1016 29.2871 17.8945 29.2871C18.7559 29.2871 19.4417 29.6016 19.9521 30.2305C20.4626 30.8594 20.7178 31.6842 20.7178 32.7051C20.7178 33.3385 20.5674 33.9196 20.2666 34.4482C19.9704 34.9769 19.5534 35.3916 19.0156 35.6924C18.4824 35.9886 17.89 36.1367 17.2383 36.1367C16.5319 36.1367 15.9007 35.9772 15.3447 35.6582C14.7887 35.3346 14.3558 34.8743 14.0459 34.2773C13.736 33.6803 13.5765 32.9922 13.5674 32.2129V31.29C13.5674 30.2646 13.7861 29.3441 14.2236 28.5283C14.6657 27.708 15.2946 27.0654 16.1104 26.6006C16.9261 26.1357 17.8307 25.9033 18.8242 25.9033H19.1729ZM17.0947 31.0508C16.7894 31.0508 16.5342 31.1214 16.3291 31.2627C16.124 31.404 15.9714 31.5771 15.8711 31.7822V32.4727C15.8711 33.7305 16.3063 34.3594 17.1768 34.3594C17.5277 34.3594 17.8193 34.2021 18.0518 33.8877C18.2887 33.5732 18.4072 33.179 18.4072 32.7051C18.4072 32.2174 18.2865 31.821 18.0449 31.5156C17.8079 31.2057 17.4912 31.0508 17.0947 31.0508ZM22.2703 29.1641L21.2586 28.6172C21.6368 27.9609 21.8305 27.3184 21.8396 26.6895V25.5H23.5213V26.6143C23.5213 27.0381 23.3982 27.4915 23.1521 27.9746C22.9106 28.4531 22.6167 28.8496 22.2703 29.1641ZM25.1148 29.1641L24.1031 28.6172C24.4814 27.9609 24.6751 27.3184 24.6842 26.6895V25.5H26.3658V26.6143C26.3658 27.0381 26.2428 27.4915 25.9967 27.9746C25.7551 28.4531 25.4612 28.8496 25.1148 29.1641Z" fill="#70808F"/>
<rect x="1" y="5" width="37" height="50" rx="2" stroke="#70808F" stroke-width="2"/>
<rect x="4.5" y="8.5" width="29" height="43" rx="0.5" stroke="#70808F"/>
</svg>
