<svg width="60" height="60" viewBox="0 0 60 60" fill="none" xmlns="http://www.w3.org/2000/svg">
<path fill-rule="evenodd" clip-rule="evenodd" d="M35.5 16.5C35.2239 16.5 35 16.7239 35 17V25.5H36V17C36 16.7239 35.7761 16.5 35.5 16.5ZM35.5 35.5C35.2239 35.5 35 35.2761 35 35V26.5H36V35C36 35.2761 35.7761 35.5 35.5 35.5Z" fill="#70808F"/>
<rect x="1" y="1" width="37" height="50" rx="2" stroke="#70808F" stroke-width="2"/>
<mask id="path-3-inside-1" fill="white">
<path d="M0 3.12221C0 1.09829 1.96303 -0.344916 3.89482 0.258769L29.8948 8.38377C31.1473 8.77515 32 9.93505 32 11.2472V56.9611C32 58.985 30.037 60.4282 28.1052 59.8245L2.10517 51.6995C0.852747 51.3081 0 50.1482 0 48.8361V3.12221Z"/>
</mask>
<path d="M0 3.12221C0 1.09829 1.96303 -0.344916 3.89482 0.258769L29.8948 8.38377C31.1473 8.77515 32 9.93505 32 11.2472V56.9611C32 58.985 30.037 60.4282 28.1052 59.8245L2.10517 51.6995C0.852747 51.3081 0 50.1482 0 48.8361V3.12221Z" fill="white"/>
<path d="M2.10517 51.6995L1.50862 53.6085L2.10517 51.6995ZM29.8948 8.38377L29.2983 10.2927L29.8948 8.38377ZM3.29827 2.16773L29.2983 10.2927L30.4914 6.47481L4.49137 -1.65019L3.29827 2.16773ZM30 11.2472V56.9611H34V11.2472H30ZM28.7017 57.9155L2.70172 49.7905L1.50862 53.6085L27.5086 61.7335L28.7017 57.9155ZM2 48.8361V3.12221H-2V48.8361H2ZM2.70172 49.7905C2.28425 49.6601 2 49.2734 2 48.8361H-2C-2 51.023 -0.578754 52.9562 1.50862 53.6085L2.70172 49.7905ZM30 56.9611C30 57.6357 29.3457 58.1168 28.7017 57.9155L27.5086 61.7335C30.7283 62.7396 34 60.3343 34 56.9611H30ZM29.2983 10.2927C29.7157 10.4232 30 10.8098 30 11.2472H34C34 9.06029 32.5788 7.12712 30.4914 6.47481L29.2983 10.2927ZM4.49137 -1.65019C1.27172 -2.65633 -2 -0.250992 -2 3.12221H2C2 2.44757 2.65434 1.9665 3.29827 2.16773L4.49137 -1.65019Z" fill="#70808F" mask="url(#path-3-inside-1)"/>
</svg>
