<svg width="60" height="63" viewBox="0 0 60 63" fill="none" xmlns="http://www.w3.org/2000/svg">
<path d="M1 62.9999V39.503C1 38.2173 1.49525 36.981 2.38289 36.0509L11.7552 26.2304C12.0541 25.9173 12.4464 25.7096 12.8733 25.6384L21.2156 24.248L18.9997 39.748C23.9591 51.2703 18.1918 56.4027 14.4945 56.5991C14.2018 56.6146 13.9516 56.8432 13.9516 57.1363V62.9999" stroke="#70808F" stroke-width="2"/>
<rect x="50" y="51" width="37" height="50" rx="2" transform="rotate(-180 50 51)" fill="white" stroke="#70808F" stroke-width="2"/>
<rect x="46.5" y="47.5" width="29" height="43" rx="0.5" transform="rotate(-180 46.5 47.5)" stroke="#70808F"/>
<path fill-rule="evenodd" clip-rule="evenodd" d="M15 27.5L15 35C15 35.2761 15.2239 35.5 15.5 35.5C15.7761 35.5 16 35.2761 16 35V27.5V26.5H15V27.5ZM15 24.5V17C15 16.7239 15.2239 16.5 15.5 16.5C15.7761 16.5 16 16.7239 16 17L16 24.5V25.5H15V24.5Z" fill="#70808F"/>
<path fill-rule="evenodd" clip-rule="evenodd" d="M42 12H22V13H42V12ZM42 16H22V17H42V16ZM22 20H42V21H22V20ZM42 24H22V25H42V24ZM22 28H42V29H22V28ZM42 32H22V33H42V32ZM22 36H42V37H22V36ZM32 40H22V41H32V40Z" fill="#70808F"/>
<path d="M17.7804 34.6953C16.2804 34.6953 14.0251 36.1026 11.4476 37.5655C9.78016 38.5119 8.346 40.3993 8.96718 42.2132L11.3875 49.2807C11.7432 50.3193 13.1106 50.4862 13.4314 49.4363C14.0159 47.5236 13.2501 45.6804 13.9311 44.0815C14.739 42.1848 20.0699 40.0198 20.6206 37.8534C21.2139 35.5198 19.2804 34.6953 17.7804 34.6953Z" fill="white"/>
<path d="M7.69995 37.5129C7.14767 37.5129 6.69995 37.9606 6.69995 38.5129C6.69995 39.0651 7.14767 39.5129 7.69995 39.5129V37.5129ZM11.4476 37.5655L11.9412 38.4352L11.4476 37.5655ZM20.6206 37.8534L19.6515 37.607L20.6206 37.8534ZM13.9311 44.0815L14.8512 44.4734L13.9311 44.0815ZM13.4314 49.4363L14.3878 49.7285L13.4314 49.4363ZM11.4237 51.2072C11.1074 51.6599 11.2179 52.2833 11.6706 52.5997C12.1233 52.916 12.7468 52.8054 13.0631 52.3527L11.4237 51.2072ZM7.69995 39.5129C9.13729 39.5129 10.5375 39.2318 11.9412 38.4352L10.954 36.6958C9.90126 37.2933 8.85357 37.5129 7.69995 37.5129V39.5129ZM11.9412 38.4352C13.2574 37.6882 14.4226 36.9956 15.4639 36.4769C16.5333 35.9443 17.2861 35.6953 17.7804 35.6953V33.6953C16.7746 33.6953 15.6498 34.15 14.5722 34.6867C13.4665 35.2374 12.2153 35.9799 10.954 36.6958L11.9412 38.4352ZM17.7804 35.6953C18.3865 35.6953 18.9868 35.8684 19.3449 36.1671C19.5096 36.3045 19.6211 36.465 19.68 36.662C19.74 36.8627 19.764 37.1642 19.6515 37.607L21.5898 38.0998C21.7739 37.3758 21.7787 36.6991 21.5961 36.0889C21.4125 35.475 21.0581 34.9918 20.6261 34.6314C19.7907 33.9345 18.6743 33.6953 17.7804 33.6953V35.6953ZM19.6515 37.607C19.5898 37.8496 19.3439 38.2238 18.7833 38.7345C18.2475 39.2224 17.5547 39.7216 16.7998 40.2487C16.068 40.7597 15.268 41.3034 14.6105 41.8356C13.9817 42.3447 13.3183 42.9685 13.0111 43.6896L14.8512 44.4734C14.9479 44.2462 15.2538 43.8881 15.869 43.3901C16.4554 42.9153 17.1741 42.4266 17.9448 41.8885C18.6924 41.3665 19.4861 40.7996 20.13 40.2131C20.7491 39.6492 21.3761 38.9404 21.5898 38.0998L19.6515 37.607ZM13.0111 43.6896C12.5699 44.7256 12.6136 45.8093 12.6458 46.6781C12.6802 47.6097 12.7097 48.3761 12.4751 49.144L14.3878 49.7285C14.7376 48.5837 14.6765 47.4721 14.6444 46.6043C14.61 45.6737 14.6114 45.0363 14.8512 44.4734L13.0111 43.6896ZM12.4751 49.144C12.1921 50.0702 11.9303 50.4822 11.4237 51.2072L13.0631 52.3527C13.6304 51.5409 14.0194 50.9342 14.3878 49.7285L12.4751 49.144Z" fill="#70808F"/>
</svg>
