<?xml version="1.0" standalone="no"?>
<!DOCTYPE svg PUBLIC "-//W3C//DTD SVG 20010904//EN"
 "http://www.w3.org/TR/2001/REC-SVG-20010904/DTD/svg10.dtd">
<svg version="1.0" xmlns="http://www.w3.org/2000/svg"
 width="700.000000pt" height="700.000000pt" viewBox="0 0 700.000000 700.000000"
 preserveAspectRatio="xMidYMid meet">
<metadata>
Created by potrace 1.11, written by Peter Selinger 2001-2013
</metadata>
<g transform="translate(0.000000,700.000000) scale(0.100000,-0.100000)"
fill="#000000" stroke="none">
<path d="M1117 6980 c-61 -25 -107 -68 -138 -127 l-24 -48 0 -3305 0 -3305 23
-45 c32 -60 63 -92 120 -121 l47 -24 2360 0 2360 0 48 28 c55 33 111 104 126
162 7 27 10 1076 8 3325 l-2 3285 -23 45 c-32 60 -63 92 -120 121 l-47 24
-2345 2 c-2298 2 -2346 2 -2393 -17z m4468 -3406 l1 -2771 -2086 1 -2085 1 -1
2765 c0 1521 3 2767 7 2770 4 3 942 5 2086 5 l2078 0 0 -2771z m-4414 1019
c15 -9 34 -30 40 -46 18 -43 18 -2052 0 -2095 -17 -40 -68 -64 -128 -60 -89 6
-83 68 8 68 26 0 51 5 55 12 9 14 12 2002 4 2038 -6 22 -13 26 -60 30 -60 6
-83 27 -61 54 18 22 104 21 142 -1z m4783 11 c9 -3 16 -16 16 -29 0 -27 -17
-35 -70 -35 -28 0 -42 -5 -49 -18 -10 -19 -15 -1998 -4 -2039 4 -20 12 -23 52
-23 57 0 74 -10 69 -41 -3 -21 -9 -24 -55 -27 -33 -2 -63 3 -82 13 -63 32 -60
-26 -60 1086 -1 704 3 1024 10 1047 6 20 24 42 43 53 30 18 98 25 130 13z"/>
</g>
</svg>
