<svg width="1em" height="1em" viewBox="0 0 42 41" fill="none" xmlns="http://www.w3.org/2000/svg">
  <title>Facebook 로고</title>
  <path fill-rule="evenodd" clip-rule="evenodd" d="M22.1911 31.4411V21.9125H25.4457L25.9163 18.2004H22.1911V15.8738C22.1911 14.8281 22.544 14.0178 24.0472 14.0178H26.0209V10.6455C25.5634 10.6455 24.4 10.5279 23.1191 10.5279C22.5311 10.4889 21.9413 10.5661 21.3832 10.7553C20.8251 10.9444 20.3098 11.2417 19.8667 11.6302C19.4236 12.0187 19.0614 12.4906 18.8008 13.0192C18.5403 13.5478 18.3866 14.1224 18.3483 14.7105C18.3288 14.941 18.3288 15.1728 18.3483 15.4033V18.2004H15.0938V21.9125H18.3483V31.4411H22.1911Z" fill="white"/>
</svg>
