<svg width="20" height="20" viewBox="0 0 20 20" xmlns="http://www.w3.org/2000/svg">
<title>Instagram 로고</title>
<path d="M9.99998 1.80184C12.6701 1.80184 12.9864 1.812 14.0408 1.86011C15.0158 1.90461 15.5453 2.06752 15.8977 2.20443C16.3644 2.38583 16.6976 2.60257 17.0475 2.95248C17.3974 3.30239 17.6142 3.63555 17.7955 4.10229C17.9325 4.4547 18.0954 4.98419 18.1399 5.95914C18.188 7.01364 18.1982 7.32989 18.1982 10C18.1982 12.6701 18.188 12.9864 18.1399 14.0409C18.0954 15.0158 17.9325 15.5453 17.7955 15.8978C17.6142 16.3645 17.3974 16.6976 17.0475 17.0476C16.6976 17.3975 16.3644 17.6142 15.8977 17.7956C15.5453 17.9325 15.0158 18.0954 14.0408 18.1399C12.9865 18.188 12.6703 18.1982 9.99998 18.1982C7.32969 18.1982 7.01344 18.188 5.95914 18.1399C4.98415 18.0954 4.45466 17.9325 4.10229 17.7956C3.63551 17.6142 3.30235 17.3975 2.95244 17.0476C2.60253 16.6976 2.38579 16.3645 2.20443 15.8978C2.06748 15.5453 1.90457 15.0158 1.86007 14.0409C1.81196 12.9864 1.8018 12.6701 1.8018 10C1.8018 7.32989 1.81196 7.01364 1.86007 5.95918C1.90457 4.98419 2.06748 4.4547 2.20443 4.10229C2.38579 3.63555 2.60253 3.30239 2.95244 2.95248C3.30235 2.60257 3.63551 2.38583 4.10229 2.20443C4.45466 2.06752 4.98415 1.90461 5.9591 1.86011C7.0136 1.812 7.32985 1.80184 9.99998 1.80184ZM9.99998 0C7.28412 0 6.94362 0.0115116 5.87701 0.0601777C4.81259 0.108764 4.08569 0.277786 3.44958 0.525007C2.79199 0.780564 2.23432 1.1225 1.67839 1.67843C1.12246 2.23436 0.780524 2.79203 0.524967 3.44962C0.277746 4.08573 0.108725 4.81263 0.060138 5.87705C0.0114719 6.94362 0 7.28416 0 10C0 12.7159 0.0114719 13.0564 0.060138 14.123C0.108725 15.1874 0.277746 15.9143 0.524967 16.5504C0.780524 17.208 1.12246 17.7657 1.67839 18.3216C2.23432 18.8775 2.79199 19.2195 3.44958 19.475C4.08569 19.7223 4.81259 19.8913 5.87701 19.9399C6.94362 19.9885 7.28412 20 9.99998 20C12.7158 20 13.0564 19.9885 14.1229 19.9399C15.1874 19.8913 15.9143 19.7223 16.5504 19.475C17.208 19.2195 17.7656 18.8775 18.3216 18.3216C18.8775 17.7657 19.2194 17.208 19.475 16.5504C19.7222 15.9143 19.8912 15.1874 19.9398 14.123C19.9885 13.0564 20 12.7159 20 10C20 7.28416 19.9885 6.94362 19.9398 5.87705C19.8912 4.81263 19.7222 4.08573 19.475 3.44962C19.2194 2.79203 18.8775 2.23436 18.3216 1.67843C17.7656 1.1225 17.208 0.780564 16.5504 0.525007C15.9143 0.277786 15.1874 0.108764 14.1229 0.0601777C13.0564 0.0115116 12.7158 0 9.99998 0ZM9.99998 4.86487C7.16393 4.86487 4.86483 7.16397 4.86483 10C4.86483 12.8361 7.16393 15.1352 9.99998 15.1352C12.836 15.1352 15.1351 12.8361 15.1351 10C15.1351 7.16397 12.836 4.86487 9.99998 4.86487ZM9.99998 13.3334C8.15904 13.3334 6.66663 11.841 6.66663 10C6.66663 8.15908 8.15904 6.66667 9.99998 6.66667C11.8409 6.66667 13.3333 8.15908 13.3333 10C13.3333 11.841 11.8409 13.3334 9.99998 13.3334ZM16.538 4.66199C16.538 5.32474 16.0008 5.86201 15.338 5.86201C14.6753 5.86201 14.138 5.32474 14.138 4.66199C14.138 3.99924 14.6753 3.462 15.338 3.462C16.0008 3.462 16.538 3.99924 16.538 4.66199Z"/>
</svg>
