<svg width="1em" height="1em" viewBox="0 0 41 41" fill="none" xmlns="http://www.w3.org/2000/svg">
  <title>Instagram 로고</title>
  <path fill-rule="evenodd" clip-rule="evenodd" d="M20.4531 10.3703C22.0796 10.3092 23.7084 10.355 25.3289 10.5074C26.1156 10.4901 26.8977 10.63 27.6296 10.9188C28.6463 11.3869 29.4623 12.2029 29.9304 13.2196C30.2192 13.9515 30.3591 14.7337 30.3418 15.5204C30.3418 16.7393 30.4789 17.1507 30.4789 20.3962C30.5401 22.0227 30.4942 23.6514 30.3418 25.2719C30.3591 26.0585 30.2192 26.8407 29.9304 27.5726C29.4623 28.5894 28.6463 29.4054 27.6296 29.8734C26.8936 30.1476 26.1143 30.287 25.3289 30.2848C24.11 30.2848 23.6986 30.4219 20.4531 30.4219C18.8266 30.483 17.1978 30.4372 15.5773 30.2848C14.7921 30.2857 14.0129 30.1464 13.2766 29.8734C12.2598 29.4054 11.4438 28.5894 10.9758 27.5726C10.7016 26.8367 10.5623 26.0573 10.5645 25.2719C10.5645 24.0529 10.4273 23.6416 10.4273 20.3962C10.3662 18.7697 10.412 17.1409 10.5645 15.5204C10.5623 14.735 10.7016 13.9556 10.9758 13.2196C11.2057 12.7139 11.5258 12.2544 11.9205 11.8635C12.2409 11.3926 12.7238 11.0563 13.2766 10.9188C14.0089 10.6315 14.7908 10.4917 15.5773 10.5074C17.1978 10.355 18.8266 10.3092 20.4531 10.3703ZM20.4531 8.20675C18.7809 8.14585 17.1065 8.1916 15.4402 8.34383C14.4004 8.33476 13.3677 8.51554 12.3928 8.87717C11.5759 9.15992 10.8344 9.62526 10.2245 10.2378C9.61456 10.8504 9.15235 11.5939 8.87313 12.412C8.43101 13.3636 8.24209 14.4133 8.32463 15.4594C8.14179 18.7988 8.14179 22.1458 8.32463 25.4852C8.32215 26.501 8.50811 27.5084 8.87313 28.4564C9.13877 29.2833 9.60462 30.0317 10.2292 30.6352C10.8326 31.2525 11.5742 31.7174 12.3928 31.9913C13.3677 32.353 14.4004 32.5336 15.4402 32.5246C18.7796 32.7074 22.1266 32.7074 25.466 32.5246C26.5071 32.533 27.5405 32.347 28.5133 31.9761C29.3286 31.6949 30.0692 31.2318 30.679 30.622C31.2888 30.0122 31.7519 29.2717 32.033 28.4564C32.3857 27.5055 32.5663 26.4994 32.5664 25.4852C32.5664 24.1291 32.7035 23.7178 32.7035 20.4723C32.7646 18.8001 32.7188 17.1257 32.5664 15.4594C32.5724 14.4199 32.3917 13.3877 32.033 12.412C31.7612 11.5924 31.2961 10.8503 30.6769 10.2484C30.0725 9.63249 29.3312 9.16786 28.5133 8.89233C27.5377 8.53363 26.5055 8.35304 25.466 8.35908C23.7997 8.20665 22.1253 8.1608 20.4531 8.22191V8.20675ZM20.4531 14.1795C19.6413 14.1613 18.834 14.3054 18.0786 14.6035C17.3233 14.9016 16.6352 15.3477 16.0546 15.9154C15.4741 16.4832 15.0128 17.1612 14.698 17.9098C14.3831 18.6583 14.221 19.4622 14.2213 20.2742V20.4723C14.2213 21.7049 14.5868 22.9097 15.2716 23.9345C15.9563 24.9594 16.9296 25.7581 18.0683 26.2297C19.207 26.7014 20.46 26.8249 21.6689 26.5844C22.8777 26.344 23.9881 25.7504 24.8596 24.8788C25.7312 24.0073 26.3248 22.8969 26.5652 21.6881C26.8057 20.4792 26.6823 19.2262 26.2106 18.0875C25.739 16.9488 24.9402 15.9755 23.9153 15.2908C22.8905 14.606 21.6857 14.2405 20.4531 14.2405V14.1795ZM20.4531 24.5405C19.3966 24.5529 18.3776 24.1491 17.6164 23.4164C16.8552 22.6836 16.4129 21.6809 16.3849 20.6247V20.4723C16.3686 19.4147 16.771 18.3934 17.5045 17.6313C18.2381 16.8692 19.2432 16.4281 20.3007 16.4041H20.4531C21.5108 16.3878 22.532 16.7902 23.2941 17.5237C24.0562 18.2573 24.4973 19.2624 24.5213 20.3199V20.4723C24.5377 21.53 24.1352 22.5512 23.4016 23.3133C22.6681 24.0754 21.663 24.5165 20.6055 24.5405H20.4531ZM26.9593 12.4883C26.6579 12.4883 26.3633 12.5776 26.1127 12.745C25.8621 12.9125 25.6669 13.1504 25.5515 13.4289C25.4362 13.7073 25.406 14.0136 25.4648 14.3092C25.5236 14.6047 25.6687 14.8762 25.8818 15.0893C26.0949 15.3024 26.3664 15.4475 26.6619 15.5063C26.9575 15.5651 27.2638 15.5349 27.5423 15.4196C27.8207 15.3042 28.0587 15.109 28.2261 14.8584C28.3935 14.6079 28.4829 14.3133 28.4829 14.012C28.4829 13.6079 28.3224 13.2202 28.0366 12.9345C27.7509 12.6487 27.3634 12.4883 26.9593 12.4883Z" fill="white"/>
</svg>
