<svg width="404" height="46" viewBox="0 0 404 46" fill="none" xmlns="http://www.w3.org/2000/svg">
<path d="M41.2705 15.6027V15.4784C41.2705 5.93114 34.5405 0 23.7114 0H0.996094V45.9951H12.4805V31.8368H20.3967L29.8769 45.9951H43.3798L32.2494 29.7227C38.0801 27.1685 41.2705 22.194 41.2705 15.6027ZM29.6617 16.1097C29.6617 19.4819 27.1983 22.3661 23.08 22.3661H12.4805V9.66202H22.8887C25.9786 9.66202 29.6617 11.4796 29.6617 15.9806V16.1097Z" fill="white"/>
<path d="M60.8626 0H49.3782V45.9951H60.8626V0Z" fill="white"/>
<path d="M90.4083 0H69.2666V45.9951H90.4083C104.538 45.9951 111.708 36.3235 111.708 22.9975V22.8732C111.713 9.61897 104.543 0 90.4083 0ZM99.7833 23.1219C99.7833 30.5023 96.5499 35.9791 89.0977 35.9791H80.751V10.0112H89.0977C96.5499 10.0112 99.7833 15.5406 99.7833 22.9975V23.1219Z" fill="white"/>
<path d="M129.491 0H118.007V45.9951H129.491V0Z" fill="white"/>
<path d="M171.799 2.19563C169.565 0.971134 166.848 0.358887 163.653 0.358887H146.376V45.9952H150.853V28.7471H163.715C166.882 28.7471 169.575 28.1252 171.803 26.8864C174.032 25.6476 175.707 23.9543 176.831 21.8162C177.95 19.6781 178.514 17.2483 178.514 14.5314C178.514 11.8146 177.955 9.38475 176.831 7.24666C175.711 5.1038 174.032 3.42012 171.799 2.19563ZM172.913 19.8216C172.134 21.3427 170.952 22.5385 169.369 23.409C167.786 24.2796 165.844 24.7101 163.543 24.7101H150.858V4.36719H163.5C165.834 4.36719 167.79 4.79768 169.374 5.65865C170.957 6.51962 172.138 7.71063 172.918 9.23647C173.698 10.7575 174.09 12.5225 174.09 14.5267C174.09 16.5308 173.693 18.3006 172.913 19.8216Z" fill="white"/>
<path d="M195.561 0.358887L178.959 45.9952H183.661L188.487 32.4253H208.151L212.972 45.9952H217.698L201.091 0.358887H195.561ZM189.908 28.4361L197.833 6.15132H198.819L206.735 28.4361H189.908Z" fill="white"/>
<path d="M250.482 2.19563C248.248 0.971134 245.531 0.358887 242.336 0.358887H225.059V45.9952H229.536V28.7471H242.398C245.565 28.7471 248.258 28.1252 250.487 26.8864C252.716 25.6476 254.39 23.9543 255.514 21.8162C256.633 19.6781 257.198 17.2483 257.198 14.5314C257.198 11.8146 256.638 9.38475 255.514 7.24666C254.399 5.1038 252.72 3.42012 250.482 2.19563ZM251.596 19.8216C250.817 21.3427 249.635 22.5385 248.052 23.409C246.469 24.2796 244.527 24.7101 242.226 24.7101H229.541V4.36719H242.183C244.517 4.36719 246.474 4.79768 248.057 5.65865C249.64 6.51962 250.822 7.71063 251.601 9.23647C252.381 10.7575 252.773 12.5225 252.773 14.5267C252.773 16.5308 252.376 18.3006 251.596 19.8216Z" fill="white"/>
<path d="M271.011 25.1358H294.635V21.1466H271.011V4.36719H296.061V0.358887H266.534V45.9952H296.463V41.9821H271.011V25.1358Z" fill="white"/>
<path d="M340.779 45.9952L330.294 26.7955C330.964 26.5707 331.6 26.3124 332.198 26.0063C334.412 24.8775 336.077 23.2894 337.201 21.2375C338.32 19.1855 338.885 16.8082 338.885 14.1057C338.885 11.3889 338.325 8.99731 337.201 6.93097C336.077 4.86464 334.403 3.25271 332.174 2.09518C329.945 0.937651 327.228 0.358887 324.019 0.358887H306.326V45.9952H310.803V27.6995H324.085C324.636 27.6995 325.162 27.6756 325.683 27.6421L335.584 45.9952H340.779ZM323.909 23.6195H310.807V4.36719H323.865C326.214 4.36719 328.175 4.76419 329.749 5.5582C331.322 6.35221 332.499 7.47626 333.279 8.93513C334.058 10.3892 334.451 12.1159 334.451 14.1057C334.451 16.0812 334.068 17.784 333.303 19.2094C332.537 20.6348 331.366 21.7253 329.792 22.4859C328.218 23.2416 326.257 23.6195 323.909 23.6195Z" fill="white"/>
<path d="M403.529 31.8944H397.268V0.358887H391.595L369.368 32.2101V35.8883H392.987V46H397.268V35.8836H403.529V31.8944ZM374.615 31.5835L392.542 6.32829H392.987V31.8944H374.615V31.5835Z" fill="white"/>
</svg>
