<svg width="95" height="14" viewBox="0 0 95 14" fill="#8c9dad" xmlns="http://www.w3.org/2000/svg">
<title>리디북스</title>
<path fill-rule="evenodd" clip-rule="evenodd" d="M59.6702 7C59.6702 8.31799 59.5482 9.46025 59.3042 10.3975C59.0602 11.3054 58.6943 12.0377 58.206 12.5356C57.7183 13.0335 57.1385 13.4142 56.4984 13.6485C55.8274 13.8828 55.0345 14 54.1195 14C53.2046 14 52.4113 13.8828 51.7407 13.6485C51.1002 13.4435 50.5208 13.0628 50.0328 12.5356C49.5448 12.0377 49.1788 11.3054 48.9349 10.3975C48.6909 9.48954 48.5689 8.34728 48.5689 7C48.5689 5.68201 48.6909 4.53975 48.9349 3.60251C49.1788 2.69456 49.5448 1.99163 50.0328 1.46444C50.5208 0.937239 51.1002 0.585774 51.7407 0.351464C52.4113 0.117155 53.2046 0 54.1195 0C55.0345 0 55.8274 0.117155 56.4984 0.351464C57.1385 0.556485 57.7183 0.937239 58.206 1.46444C58.6943 1.96234 59.0602 2.69456 59.3042 3.60251C59.5482 4.51046 59.6702 5.65272 59.6702 7ZM55.6701 10.125C55.9407 9.56494 56.0609 8.53321 56.0609 7.00037C56.0609 5.46752 55.9407 4.43579 55.6701 3.87572C55.3995 3.28616 54.8884 2.9619 54.2266 2.9619C53.5655 2.9619 53.0844 3.28616 52.8138 3.87572C52.573 4.43579 52.453 5.46752 52.453 7.00037C52.453 8.53321 52.573 9.56494 52.8138 10.125C53.0844 10.7146 53.5655 11.0388 54.2266 11.0388C54.8884 11.0388 55.3995 10.7146 55.6701 10.125ZM71.7913 10.3975C72.0356 9.46025 72.1576 8.31799 72.1576 7C72.1576 5.65272 72.0356 4.51046 71.7913 3.60251C71.5477 2.69456 71.1814 1.96234 70.6937 1.46444C70.2057 0.937239 69.6263 0.556485 68.9858 0.351464C68.3148 0.117155 67.5216 0 66.6067 0C65.6917 0 64.8991 0.117155 64.2281 0.351464C63.5876 0.585774 63.0082 0.937239 62.5202 1.46444C62.0319 1.99163 61.6663 2.69456 61.422 3.60251C61.1783 4.53975 61.0563 5.68201 61.0563 7C61.0563 8.34728 61.1783 9.48954 61.422 10.3975C61.6663 11.3054 62.0319 12.0377 62.5202 12.5356C63.0082 13.0628 63.5876 13.4435 64.2281 13.6485C64.8991 13.8828 65.6917 14 66.6067 14C67.5216 14 68.3148 13.8828 68.9858 13.6485C69.6263 13.4142 70.2057 13.0335 70.6937 12.5356C71.1814 12.0377 71.5477 11.3054 71.7913 10.3975ZM68.2726 7.00037C68.2726 8.53321 68.1524 9.56494 67.8818 10.125C67.6112 10.7146 67.1 11.0388 66.4383 11.0388C65.7771 11.0388 65.266 10.7146 65.0255 10.125C64.7847 9.56494 64.6647 8.53321 64.6647 7.00037C64.6647 5.46752 64.7847 4.43579 65.0255 3.87572C65.2961 3.28616 65.7771 2.9619 66.4383 2.9619C67.1 2.9619 67.6112 3.28616 67.8818 3.87572C68.1223 4.43579 68.2726 5.46752 68.2726 7.00037ZM94.9154 10.0543C94.9154 9.46973 94.8547 8.97286 94.703 8.53445C94.5513 8.12526 94.3086 7.7453 93.9746 7.4238C93.6109 7.07307 93.2772 6.81002 92.9435 6.60543C92.6095 6.40084 92.1244 6.10856 91.4873 5.78706C90.1825 5.14405 89.5757 4.5595 89.5757 3.94572C89.5757 3.47808 89.8187 3.24426 90.0308 3.12735C90.2738 3.01044 90.6682 2.95198 91.1839 2.95198C92.0027 2.95198 92.7311 3.06889 93.3985 3.27349C93.4895 3.30271 93.5805 3.30271 93.6412 3.30271C93.7929 3.30271 93.9142 3.24426 93.9746 2.98121L94.339 1.11065C94.3693 0.935282 94.3693 0.701461 93.9446 0.526096C93.0645 0.175365 91.9727 0 90.6682 0C89.03 0 87.7862 0.292276 86.9971 0.906054C86.2387 1.49061 85.8446 2.45511 85.8446 3.79958C85.8446 4.44259 85.9353 4.99791 86.1176 5.49478C86.2996 5.96242 86.542 6.37161 86.9064 6.72234C87.2704 7.07307 87.6038 7.33612 87.9682 7.56994C88.3019 7.77453 88.757 8.00835 89.2724 8.24217C90.0308 8.62213 90.5165 8.91441 90.7892 9.119C91.0926 9.35282 91.2443 9.64509 91.2443 9.9666C91.2443 10.6973 90.5468 11.048 89.1513 11.048C88.3019 11.048 87.4828 10.9019 86.7547 10.6388C86.7295 10.6328 86.7056 10.6267 86.6827 10.6209C86.5954 10.5987 86.5232 10.5804 86.4513 10.5804C86.3603 10.5804 86.2387 10.5804 86.148 10.9019L85.7836 12.8017C85.7357 12.9873 85.7639 13.0808 85.7775 13.1261C85.7811 13.1379 85.7836 13.1464 85.7836 13.1524C85.7868 13.1554 85.7906 13.1593 85.7951 13.1641C85.8349 13.2054 85.9334 13.3076 86.1783 13.3862C87.2401 13.7954 88.5446 14 90.0308 14C91.4569 14 92.6401 13.6785 93.5502 13.0355C94.4603 12.3925 94.9154 11.3987 94.9154 10.0543ZM84.6198 13.6156C84.6499 13.5577 84.6801 13.4419 84.5592 13.2392L81.033 6.40712L81.0028 6.32027L81.033 6.26237L84.3485 0.761956C84.4691 0.559309 84.4389 0.47246 84.4085 0.385611C84.4039 0.381154 84.3993 0.375323 84.394 0.368648C84.3651 0.331974 84.316 0.269813 84.1375 0.269813H81.2741C80.9422 0.269813 80.7014 0.414561 80.5206 0.761956L78.0188 5.04649L77.7174 5.56758V0.704057C77.7174 0.385611 77.5969 0.269813 77.2653 0.269813H74.5526C74.221 0.269813 74.1005 0.385611 74.1005 0.704057V13.2971C74.1005 13.6156 74.221 13.7314 74.5526 13.7314H77.2653C77.5969 13.7314 77.7174 13.6156 77.7174 13.2971V7.21771L78.0188 7.82565L80.7014 13.2392C80.8521 13.5577 81.0929 13.7024 81.4248 13.7024H84.3184C84.5294 13.7314 84.5896 13.6735 84.6198 13.6156ZM44.6738 6.52292L45.0618 6.63872L45.2409 6.69661C45.8081 6.89926 46.2857 7.24666 46.6439 7.76775C47.0021 8.28884 47.1813 8.95468 47.1813 9.79422C47.1813 12.4576 45.5992 13.7314 42.3156 13.7314H37.3603C37.032 13.7314 36.9126 13.6156 36.9126 13.2971V0.704057C36.9126 0.385611 37.032 0.269813 37.3603 0.269813H41.9872C43.6588 0.269813 44.9126 0.530359 45.6887 1.0225C46.4051 1.48569 46.7932 2.35418 46.7932 3.62796C46.7932 4.93069 46.2559 5.82813 45.2111 6.29132L45.032 6.37817L44.6738 6.52292ZM42.9492 5.32856C43.1805 5.12146 43.2961 4.76643 43.2961 4.29306C43.2961 3.81969 43.1805 3.49424 42.9781 3.28714C42.7468 3.05046 42.3999 2.9617 41.9084 2.9617H40.5208V5.65401H41.8795C42.371 5.65401 42.7179 5.56525 42.9492 5.32856ZM43.8512 9.55684C43.8512 10.0795 43.7267 10.4569 43.4777 10.6892C43.2287 10.9215 42.824 11.0376 42.2015 11.0376H40.5208V8.07607H42.1704C42.7306 8.07607 43.1664 8.1922 43.4465 8.42448C43.6955 8.65676 43.8512 9.03421 43.8512 9.55684ZM34.6923 13.2971V0.704057C34.6923 0.385611 34.542 0.269813 34.2413 0.269813H31.5354C31.2047 0.269813 31.0844 0.385611 31.0844 0.704057V13.2971C31.0844 13.6156 31.2047 13.7314 31.5354 13.7314H34.2413C34.542 13.7314 34.6923 13.6156 34.6923 13.2971ZM27.4308 12.226C28.3757 11.2127 28.8634 9.47577 28.8634 7.01506C28.8634 4.55435 28.3757 2.78842 27.4308 1.80414C26.4859 0.790905 24.9314 0.269813 22.8282 0.269813H18.7743C18.439 0.269813 18.3171 0.385611 18.3171 0.704057V13.2971C18.3171 13.6156 18.439 13.7314 18.7743 13.7314H22.8587C24.9618 13.7314 26.4859 13.2392 27.4308 12.226ZM24.9789 7.0139C24.9789 8.48052 24.8028 9.41916 24.4799 9.94715C24.1276 10.5045 23.5112 10.7685 22.6599 10.7685H21.926V3.23H22.6012C23.4525 3.23 24.0689 3.49399 24.4212 4.05131C24.8028 4.5793 24.9789 5.54727 24.9789 7.0139ZM16.0979 13.3026V0.709593C16.0979 0.391148 15.9776 0.27535 15.6469 0.27535H12.9409C12.6102 0.27535 12.4899 0.391148 12.4899 0.709593V13.3026C12.4899 13.6211 12.6102 13.7369 12.9409 13.7369H15.6469C15.9776 13.7369 16.0979 13.6211 16.0979 13.3026ZM10.2687 5.05202C10.2687 3.2861 9.84714 2.04127 9.00396 1.34648C8.1909 0.651694 6.77556 0.27535 4.8784 0.27535H0.451704C0.120454 0.27535 0 0.391148 0 0.709593V13.3026C0 13.6211 0.120454 13.7369 0.451704 13.7369H3.16193C3.49318 13.7369 3.61363 13.6211 3.61363 13.3026V9.62605H4.60738L4.63749 9.7129L6.44431 13.3026C6.59488 13.5921 6.83578 13.7079 7.19715 13.7079H9.93748C10.1784 13.7079 10.2085 13.6211 10.2085 13.5921C10.2386 13.5053 10.2386 13.3605 10.1483 13.2158L7.94999 9.22076L7.85965 9.07601L8.01021 9.01811L8.10055 8.98916C9.54601 8.35227 10.2687 7.02059 10.2687 5.05202ZM6.66062 5.11478C6.66062 5.7729 6.5385 6.25153 6.26374 6.55068C5.98899 6.84982 5.53105 6.9994 4.85942 6.9994H3.60774V3.23017H4.85942C5.53105 3.23017 5.98899 3.37974 6.26374 3.67888C6.50797 3.94812 6.66062 4.42675 6.66062 5.11478Z"/>
</svg>
