<svg width="56" height="20" viewBox="0 0 56 20" fill="none" xmlns="http://www.w3.org/2000/svg">
<g clip-path="url(#clip0_1346_1781)">
<path d="M17.0635 6.78308V6.72838C17.0635 2.57942 14.095 0 9.3134 0H0V20H5.0678V13.8418H7.85051L12.0342 19.9979H17.9947L13.0828 12.9224C15.6562 11.8136 17.0635 9.65075 17.0635 6.78308ZM11.9402 7.004C11.9402 8.47044 10.8532 9.72439 9.03363 9.72439H5.0678V4.20156H8.95035C10.315 4.20156 11.9402 4.99264 11.9402 6.9493V7.004Z" fill="white"/>
<path d="M25.7104 0H20.6426V20H25.7104V0Z" fill="white"/>
<path d="M38.7524 0H29.4219V20H38.7524C44.9883 20 48.1533 15.7942 48.1533 10V9.9453C48.1533 4.18262 44.9883 0 38.7524 0ZM42.889 10.0547C42.889 13.2632 41.4625 15.6449 38.1715 15.6449H34.4897V4.35304H38.1736C41.4625 4.35304 42.8912 6.75784 42.8912 10V10.0547H42.889Z" fill="white"/>
<path d="M56.0014 0H50.9336V20H56.0014V0Z" fill="white"/>
</g>
<defs>
<clipPath id="clip0_1346_1781">
<rect width="56" height="20" fill="white"/>
</clipPath>
</defs>
</svg>
