<svg width="2.47368em" height="1em" viewBox="0 0 47 19" fill="none" xmlns="http://www.w3.org/2000/svg">
<g opacity="0.6" clip-path="url(#clip0_2_118)">
<path d="M14.321 6.79205V6.74492C14.321 3.21504 11.8274 1.02588 7.81671 1.02588H0V17.9945H4.23121V12.7572H6.5673L10.0793 17.9945H15.0822L10.9822 11.9821C12.006 11.5643 12.8758 10.8418 13.4732 9.91313C14.0707 8.98443 14.3667 7.89461 14.321 6.79205V6.79205ZM10.0058 6.94917C10.0101 7.26466 9.94891 7.57763 9.82615 7.86842C9.70339 8.1592 9.52168 8.42152 9.29245 8.63891C9.06321 8.85629 8.7914 9.02403 8.49408 9.13161C8.19675 9.23918 7.88035 9.28427 7.56473 9.26402H4.23121V4.55053H7.49123C8.65665 4.57147 10.0058 5.22089 10.0058 6.90203V6.94917Z" fill="black"/>
<path d="M21.5803 1H17.3281V18H21.5803V1Z" fill="black"/>
<path d="M32.5251 1H24.7031V17.9948H32.5251C37.7747 17.9948 40.3995 14.423 40.3995 9.5V9.45287C40.4153 4.55607 37.759 1 32.5251 1ZM35.9951 9.54713C35.9951 12.2705 34.7982 14.2973 32.0369 14.2973H28.9448V4.69747H32.0526C34.8139 4.69747 36.0108 6.74522 36.0108 9.5L35.9951 9.54713Z" fill="black"/>
<path d="M47.0022 1H42.75V18H47.0022V1Z" fill="black"/>
</g>
<defs>
<clipPath id="clip0_2_118">
<rect width="47" height="19" fill="white"/>
</clipPath>
</defs>
</svg>
