<svg width="90" height="14" viewBox="0 0 90 14" fill="#8c9dad" xmlns="http://www.w3.org/2000/svg">
<title>리디셀렉트</title>
<path fill-rule="evenodd" clip-rule="evenodd" d="M8.37322 9.09338C9.86056 8.40361 10.6149 7.01822 10.6149 4.97426C10.6149 3.13331 10.179 1.83192 9.31938 1.10598C8.44929 0.372158 7.01066 0 5.04348 0H0.467517C0.126876 0 0 0.122789 0 0.453823V13.5462C0 13.8769 0.126876 13.9997 0.467517 13.9997H3.25067C3.59192 13.9997 3.71879 13.8769 3.71879 13.5462V9.72424H4.75755L4.80265 9.81553L6.65949 13.5628C6.81283 13.86 7.05696 13.9997 7.42676 13.9997H10.2526C10.4904 13.9997 10.5271 13.9192 10.5409 13.8889L10.5409 13.8889C10.5854 13.7903 10.5632 13.6579 10.4748 13.4957L8.21989 9.35063L8.13962 9.20246L8.29505 9.12984L8.37322 9.09338ZM6.43327 6.41219C6.16058 6.71873 5.67863 6.87418 5.00065 6.87418H3.71866V3.05577H5.00095C5.68584 3.05577 6.15306 3.19897 6.42906 3.49297C6.69995 3.77996 6.83194 4.26499 6.83194 4.97518C6.83194 5.64163 6.70145 6.11178 6.43327 6.41219ZM16.0799 0H13.2751C12.9338 0 12.8069 0.123081 12.8069 0.453823V13.5459C12.8069 13.8766 12.9338 13.9997 13.2751 13.9997H16.0799C16.4205 13.9997 16.5471 13.8766 16.5471 13.5459V0.453823C16.5471 0.123081 16.4205 0 16.0799 0ZM23.545 0H19.4333C19.0927 0 18.9658 0.123081 18.9658 0.453823V13.5459C18.9658 13.8766 19.0927 13.9997 19.4333 13.9997H23.5877C25.7251 13.9997 27.2939 13.4727 28.2518 12.4335C29.2178 11.3864 29.7073 9.55829 29.7073 7.00014C29.7073 4.44169 29.2142 2.61357 28.2422 1.56709C27.2768 0.52703 25.6968 0 23.545 0ZM25.402 10.0142C25.0313 10.5771 24.3858 10.8623 23.4842 10.8623H22.7076V3.1368H23.4424C24.3422 3.1368 24.9931 3.42117 25.3786 3.98145C25.7475 4.51782 25.9264 5.50509 25.9264 6.99985C25.9264 8.49286 25.7544 9.47896 25.402 10.0142ZM35.1946 0H32.3895C32.0483 0 31.9217 0.123081 31.9217 0.453823V13.5459C31.9217 13.8766 32.0483 13.9997 32.3895 13.9997H35.1946C35.5353 13.9997 35.6616 13.8766 35.6616 13.5459V0.453823C35.6616 0.123081 35.5353 0 35.1946 0ZM39.8856 13.3218C40.6372 13.6928 42.0999 13.9422 43.5259 13.9422C46.6238 13.9422 48.401 12.6038 48.4007 10.2702C48.4007 7.78359 46.5605 6.96749 44.6127 6.10363L44.6125 6.10353L44.4709 6.04083C44.3076 5.96791 44.1467 5.8982 43.9892 5.82996C42.706 5.27434 41.6928 4.83539 41.6928 3.59613C41.6928 2.31953 42.5554 1.7505 44.4892 1.7505C45.5186 1.7505 46.3226 1.88554 47.0237 2.17808C47.1067 2.20899 47.1779 2.22387 47.2411 2.22387C47.4816 2.22387 47.548 2.01562 47.5754 1.92987L47.8682 1.08902C47.9681 0.742233 47.6731 0.619152 47.5784 0.579778C46.7546 0.217828 45.6188 0.0186235 44.3801 0.0186235C40.6513 0.0186235 39.8687 1.964 39.8687 3.59584C39.8687 6.05673 41.6641 6.80577 43.5647 7.59874L43.565 7.59888L43.7367 7.67033L43.7372 7.67057C45.2607 8.30454 46.5763 8.85202 46.5763 10.2323C46.5763 11.5016 45.4444 12.2296 43.4709 12.2296C42.3558 12.2296 41.2133 12.028 40.4204 11.6929C40.3426 11.6556 40.2725 11.6372 40.2064 11.6372C40.1087 11.6372 39.9361 11.6798 39.873 11.9627L39.5828 12.8149C39.4908 13.1346 39.7392 13.2524 39.8856 13.3218ZM60.7147 13.2853C60.7147 13.6875 60.9657 13.772 61.1762 13.772H62.0851C62.2955 13.772 62.5469 13.6875 62.5469 13.2853V0.562451C62.5469 0.256499 62.3869 0.0946276 62.0851 0.0946276H61.1762C60.8743 0.0946276 60.7147 0.256499 60.7147 0.562451V13.2853ZM84.9883 10.65C84.9883 12.9786 85.7956 13.886 87.8677 13.886C88.3328 13.886 89.0033 13.8 89.328 13.6416C89.4263 13.5981 89.6861 13.482 89.6151 13.1481L89.4344 12.4143L89.4341 12.4128C89.4101 12.3022 89.3476 12.0144 89.0415 12.0144C89.009 12.0144 88.9735 12.0179 88.9474 12.0237C88.862 12.0375 88.7775 12.0561 88.6942 12.0792L88.6934 12.0794C88.552 12.1161 88.4054 12.1541 88.1404 12.1541C87.0526 12.1541 86.8025 11.8447 86.8025 10.4984V5.31556H89.0132C89.3271 5.31556 89.4928 5.15369 89.4928 4.84803V4.07047C89.4928 3.76101 89.3178 3.58368 89.0132 3.58368H86.8025V1.37786C86.8025 1.07191 86.6365 0.910036 86.3226 0.910036H85.4865C85.1847 0.910036 85.0247 1.07191 85.0247 1.37786V3.58368H83.887C83.5822 3.58368 83.4072 3.76101 83.4072 4.07047V4.84803C83.4072 5.15369 83.5732 5.31556 83.887 5.31556H84.9883V10.65ZM74.8399 8.63948C74.8399 11.9224 76.6817 13.9617 79.6458 13.9617C80.8006 13.9617 81.8827 13.5478 82.2928 13.2874C82.4642 13.1806 82.6584 13.0596 82.5892 12.7382L82.2997 11.9647C82.2261 11.6733 82.0138 11.6418 81.9257 11.6418C81.8541 11.6418 81.7784 11.6596 81.678 11.7045C81.0541 12.0528 80.3581 12.2295 79.6092 12.2295C77.777 12.2295 76.7262 10.9208 76.7262 8.63948C76.7262 6.32807 77.7544 5.10659 79.7002 5.10659C80.3882 5.10659 80.9504 5.23492 81.5249 5.52338C81.6157 5.56713 81.7023 5.58929 81.7832 5.58929C81.8878 5.58929 82.079 5.55108 82.1846 5.29384L82.5033 4.50519C82.5691 4.19603 82.3707 4.04058 82.2155 3.95074C81.9768 3.81104 81.076 3.35576 79.5187 3.35576C76.6327 3.35576 74.8399 5.38017 74.8399 8.63948ZM64.5682 8.69685C64.5682 11.9678 66.4864 13.9998 69.5741 13.9998C71.0203 13.9998 72.0846 13.5466 72.5906 13.2771C72.8356 13.149 72.9349 12.9673 72.8813 12.7188L72.6029 12.0025C72.4809 11.7155 72.2851 11.6727 72.1793 11.6727C72.0987 11.6727 72.0164 11.6963 71.9352 11.7424C71.2798 12.1023 70.6679 12.3251 69.6472 12.3251C67.8782 12.3251 66.6172 11.236 66.4185 9.54442H72.9192C73.2451 9.54442 73.4174 9.37584 73.4174 9.05734V8.10916C73.4174 5.17739 71.7635 3.35626 69.1018 3.35626C66.2633 3.35626 64.5682 5.35267 64.5682 8.69685ZM69.1015 5.03068C70.6763 5.03068 71.5921 6.07745 71.6204 7.90616H66.4119C66.5604 5.99783 67.4657 5.03068 69.1015 5.03068ZM49.8446 8.69685C49.8446 11.9678 51.7628 13.9998 54.8505 13.9998C56.2963 13.9998 57.3613 13.5466 57.8676 13.2768C58.112 13.1485 58.2112 12.967 58.1583 12.7188L57.8793 12.0025C57.7575 11.7155 57.5615 11.6727 57.4557 11.6727C57.3751 11.6727 57.293 11.6963 57.2118 11.7424C56.5564 12.1023 55.9446 12.3251 54.9238 12.3251C53.1551 12.3251 51.8939 11.236 51.6951 9.54442H58.1962C58.5218 9.54442 58.6938 9.37584 58.6938 9.05734V8.10916C58.6938 5.17739 57.0399 3.35626 54.3782 3.35626C51.5394 3.35626 49.8446 5.35267 49.8446 8.69685ZM54.377 5.03068C55.9519 5.03068 56.868 6.07745 56.8959 7.90616H51.6877C51.8359 5.99783 52.7406 5.03068 54.377 5.03068Z"/>
</svg>
