<svg width="7.42105em" height="1em" viewBox="0 0 141 19" fill="none" xmlns="http://www.w3.org/2000/svg">
<g opacity="0.6">
<path d="M66.1514 6.06146H62.1258C61.9171 4.78565 61.1842 3.76291 59.4793 3.76291C58.0593 3.76291 57.1382 4.41427 57.1382 5.51243C57.1382 6.48678 57.7998 6.91205 59.0772 7.19197L61.3267 7.73029C64.2786 8.40318 66.1718 9.67896 66.1718 12.6074C66.1718 16.0095 63.5253 18.1359 59.5047 18.1359C55.8862 18.1359 52.6188 16.2841 52.2422 12.0799H56.2679C56.5274 13.5818 57.7336 14.5615 59.6269 14.5615C61.0468 14.5615 61.8967 13.9586 61.8967 13.0057C61.8967 12.4082 61.5914 11.7838 60.1918 11.5093L57.5453 10.9063C54.3746 10.1796 52.8835 8.65617 52.8835 5.95382C52.8835 2.55167 55.4892 0.398438 59.2706 0.398438C61.8662 0.409204 65.7494 1.48578 66.1514 6.06146Z" fill="black"/>
<path d="M72.5786 7.57416H79.7041V11.181H72.5786V14.1312H80.7221V17.8027H68.5781V0.791016H80.7373V4.46789H72.5939L72.5786 7.57416Z" fill="black"/>
<path d="M94.2207 17.8027H83.0234V0.791016H87.0188V14.0773H94.2359L94.2207 17.8027Z" fill="black"/>
<path d="M100.105 7.57416H107.23V11.181H100.105V14.1312H108.248V17.8027H96.1094V0.791016H108.269V4.46789H100.125L100.105 7.57416Z" fill="black"/>
<path d="M122.156 10.7394H126.269C125.76 15.1428 122.579 18.1466 118.207 18.1466C113.357 18.1466 109.688 14.4214 109.688 9.29129C109.688 4.16115 113.357 0.436035 118.207 0.436035C122.579 0.436035 125.75 3.43445 126.269 7.83787H122.156C122.014 6.84489 121.529 5.94282 120.795 5.30565C120.061 4.66847 119.13 4.34131 118.182 4.38725C115.556 4.38725 113.734 6.46514 113.734 9.29129C113.734 12.1174 115.556 14.1954 118.182 14.1954C119.131 14.2412 120.063 13.9132 120.797 13.275C121.531 12.6367 122.015 11.7334 122.156 10.7394V10.7394Z" fill="black"/>
<path d="M135.777 4.56479V17.8027H131.807V4.57018H126.672V0.801758H140.923V4.57018L135.777 4.56479Z" fill="black"/>
<path d="M14.1136 6.5406V6.49755C14.1136 2.96062 11.7571 0.76416 7.96022 0.76416H0V17.8028H4.02592V12.5539H6.79978L10.1233 17.8028H14.8516L10.9733 11.768C11.9419 11.3446 12.7633 10.6154 13.3253 9.67978C13.8874 8.7442 14.1627 7.64787 14.1136 6.5406ZM10.0419 6.72368C10.0453 7.03999 9.98694 7.35359 9.87047 7.64495C9.75401 7.93631 9.58195 8.19913 9.36505 8.41692C9.14815 8.63471 8.8911 8.80282 8.60996 8.91071C8.32882 9.01859 8.02966 9.06394 7.73119 9.04391H4.02083V4.34417H7.66502C8.74912 4.34417 10.0419 5.01709 10.0419 6.68596V6.72368Z" fill="black"/>
<path d="M20.979 0.753418H16.9531V17.7974H20.979V0.753418Z" fill="black"/>
<path d="M31.3324 0.759277H23.9219V17.8033H31.3324C36.2847 17.8033 38.7989 14.218 38.7989 9.28133V9.23283C38.7939 4.34465 36.2796 0.759277 31.3324 0.759277ZM34.6203 9.32437C34.6203 12.0592 33.4853 14.0887 30.8743 14.0887H27.9529V4.46849H30.8743C33.4853 4.46849 34.6203 6.51962 34.6203 9.28133V9.32437Z" fill="black"/>
<path d="M45.0259 0.753418H41V17.7974H45.0259V0.753418Z" fill="black"/>
</g>
</svg>
